<?xml version="1.0" encoding="utf-8"?>
<!-- Generator: Adobe Illustrator 24.1.3, SVG Export Plug-In . SVG Version: 6.00 Build 0)  -->
<svg version="1.1" id="Layer_1" xmlns="http://www.w3.org/2000/svg" xmlns:xlink="http://www.w3.org/1999/xlink" x="0px" y="0px"
	 viewBox="0 0 367.99 121.69" style="enable-background:new 0 0 367.99 121.69;" xml:space="preserve">
<style type="text/css">
	.st0{fill-rule:evenodd;clip-rule:evenodd;fill:#2D4EA2;}
	.st1{fill-rule:evenodd;clip-rule:evenodd;fill:#ED1C24;}
	.st2{fill-rule:evenodd;clip-rule:evenodd;fill:#1A351A;}
	.st3{fill-rule:evenodd;clip-rule:evenodd;}
</style>
<g>
	<path class="st0" d="M74.74,54.22c-2.55-1.65-10.16-3.38-13.71-4.18c-4.14-0.94-11.34-1.46-15.69-1.17
		C9.93,51.2-11.52,97.96,6.53,106.24c8.34,3.82,40.32-1.3,43.81-6.57c-10.7,2.78-26.28,3.55-33.57,0.43
		c-11.54-4.94-1.46-18.05,2.04-22.51c10.44-13.31,26.9-23.17,47.61-23.69C69.9,53.81,72.81,54.33,74.74,54.22z"/>
	<path class="st1" d="M38.93,72.19c0.11,2.79,3.2,9.15,4.64,12.12c1.68,3.46,5.55,8.8,8.4,11.65c23.21,23.24,75.97,9.47,72.22-8.18
		c-1.73-8.16-25.27-27.3-31.86-26.5c8.79,5.75,18.78,16.13,20.48,23.13c2.7,11.08-14.53,12.1-20.43,12.4
		c-17.61,0.9-35.89-4.52-48.75-18.63C41.48,75.82,40.18,73.47,38.93,72.19z"/>
	<path class="st2" d="M76.89,82.34c2.31-1.55,6-7.4,7.73-10.13c2.01-3.18,4.4-9.14,5.24-12.98c6.86-31.19-34.2-67.42-47.14-55.15
		c-5.98,5.67-9.16,35-4.81,40c0-10.22,3.27-23.84,8.28-28.88c7.92-7.98,18.38,5.66,21.91,10.35c10.56,14.02,16.12,31.87,11.27,49.8
		C78.56,78.35,77.28,80.65,76.89,82.34z"/>
	<g>
		<path class="st3" d="M260.87,29.51c0,16.23,9.35,26.6,25.5,26.6c0.29,3.47,3.04,7.69,5.37,9.94c2.49,2.41,6.64,4.27,11.39,4.27
			c4.2,0,9.56-3.57,11.66-5.51c0.89-0.83,0.63,0.3,0.68-1.11c0.05-1.54-1.37-0.91-2.41-0.63c-6.51,1.8-15.62,1.36-19.56-3.52
			c-0.89-1.09-1.89-2.22-2.02-3.81c6.86-1.6,11.55-3.07,16.09-8.69c6.15-7.61,7.76-20.25,4.37-29.62
			C303.3-6.4,260.87-2.14,260.87,29.51L260.87,29.51z M287.43,4.33c5.13,0,10.84,2.36,14.18,6.74c3.29,4.31,4.25,10.58,4.25,17.11
			c0,6.69-0.89,14.15-4.32,18.48c-3.32,4.2-9.11,5.37-14.12,5.37c-4.54,0-9.22-1.41-12.44-4.93c-4-4.37-6-11.62-6-18.92
			c0-6.62,1.02-13.85,4.39-18.17C276.72,5.73,282.37,4.33,287.43,4.33z"/>
		<path class="st3" d="M314.79,53.19c0.33,0.66,0.28,0.46,0.36,1.46h15.67v-1.82c-1.21-0.03-4.74-0.94-4.74-1.82
			c0-2.51,4.68-11.91,5.46-15.3h17.49c2.56,11,7.94,15.28,2.18,16.75c-1.92,0.49-2.13,0.04-2.18,2.19h18.95
			c-0.28-3.35-2.76-1.2-5.54-3.57c-1.18-1-2.23-4.8-2.89-6.58L344.3,2.91c-5.2,1.21-3.19-0.53-8.23,11.45
			c-3.26,7.76-11.69,29.1-14.71,35.21C319.87,52.62,317.38,51.95,314.79,53.19L314.79,53.19z M348.25,31.7l-15.33-0.25l8.04-19.94
			L348.25,31.7z"/>
		<path class="st3" d="M279.82,78.33c1.47,0.34,2.9,0.75,4.37,1.09v23.68c-1.47,0.34-2.71,0.95-4.37,1.09v1.46h14.57v-1.46
			c-1.42-0.03-3.02-0.62-4.01-1.09c0-2.54-0.36-3.56-0.36-6.19v-15.3c0-3.08,13.84-5.82,13.84,3.64v17.12c0,1.3-2.67,1.79-4.01,1.82
			v1.46h14.21c-0.26-3.09-3.1-0.63-4.15-3.14c-1.03-2.46,0.78-15.77-0.59-21.64c1.16-0.31,1.82-1.02,2.95-1.42
			c5.55-1.99,11.26-0.56,11.26,7.25v14.94c0,1.49-0.26,1.56-1.28,2c-0.78,0.34-1.77,0.53-2.73,0.55v1.46h14.57
			c-0.2-2.42-1.7-1.27-4.37-2.55c-2.4-10.32,4.27-28.05-8.74-28.05c-6.37,0-6.9,0.58-12.02,4.01c-1.91-2.24-1.54-4.01-10.2-4.01
			c-3.61,0-6.43,2.14-8.74,3.28v-3.28c-1.82,0.04-5.56,1.18-8.19,1.64C280.12,76.99,279.97,76.55,279.82,78.33z"/>
		<path class="st3" d="M133,71.41c0,16.48,22.59,11.46,22.59,24.77c0,7.51-8.98,8.62-15.08,7.06c-2.04-0.52-2.16-0.36-2.65-2.45
			l-1.41-6.24c-0.42-1.26,0.04-0.94-1.26-1.29c-1.06,1.01-0.6,0.57-0.85,2.43c-0.09,0.65-0.28,2.19-0.44,3.2
			c-0.3,1.86-0.85,4.3-0.89,6.03c2.25,0.05,5.44,1.46,8.74,1.46c6.63,0,10.54,0.6,15.72-3.59c5.44-4.39,5.63-13.08,0.96-17.47
			c-4.44-4.18-14.28-6.1-17.58-10.47c-4.05-5.36-0.98-12.92,7.46-12.92c2.53,0,4.45,0.92,6.56,1.09c0.22,2.61,1.6,5.4,1.82,8.02
			h1.46c0.13-1.56,0.75-3.77,0.99-5.2c0.32-1.86,0.83-3.56,0.83-5.36c-2.83,0-4.54-0.73-7.65-0.73h-5.83
			C139.4,59.75,133,64.35,133,71.41z"/>
		<path class="st3" d="M248.49,91.08c0,8.91,5.76,15.3,13.12,15.3c5.34,0,7.19,0.26,12.05-2.16c1.2-0.6,1.39-0.46,1.43-2.22
			c-3.4,0-15.87,3.53-19.42-6.45c-0.44-1.24-0.95-4.47-0.98-5.94h20.77v-2.91c0-6.39-4.24-11.66-10.57-11.66h-2.55
			C253.66,75.05,248.49,82.32,248.49,91.08L248.49,91.08z M269.24,87.17h-14.35c-0.02-0.49-0.01-0.99,0.03-1.5
			c0.44-4.89,4.41-8.92,8.38-8.68c3.97,0.23,6.45,4.64,6.01,9.53C269.3,86.74,269.27,86.96,269.24,87.17z"/>
		<path class="st3" d="M136.27,19.31v2.19c-2.09,0-2.77,0.36-5.1,0.36v1.82c1.66,0.14,3.58,0.74,5.1,1.09l0.01,22.96
			c0.02,1.81,0.24,3.38-1.23,4.23c-2.32,1.33-3.8-0.42-3.87,2.68h17.49v-1.46c-0.56-0.13-4.72-1.36-4.97-1.59
			c-0.74-0.69-0.5-1.29-0.67-2.61c-0.41-3.1-0.19-18.96-0.19-23.13c0-1.9,3.86-1.09,9.11-1.09V21.5c-12.07,0-8.83,0.89-8.74-6.19
			c0.05-3.7,1.14-9.1,4.15-11.15c1.92-1.31,3.39-1.24,6.42-1.24c0.34,1.47,0.84,2.63,1.32,4.14c1.03,3.26,0.24,3.1,2.32,3.14
			c0.52-1.09,0.23-1.05,0.53-2.39c0.2-0.89,0.42-1.36,0.73-2.21c1.67-4.5,1.22-5.44-1.96-5.61h-5.49
			C141.52,0,136.27,10.38,136.27,19.31z"/>
		<path class="st3" d="M222.26,46.63c0,5.03-3.6,5.83-8.38,5.83c-4.66,0-4.38-1.3-5.86-6.16c-0.53-1.73-0.19-2.18-2.15-2.22
			l-2.19,9.47c1.56,0.13,3.59,1.03,5.19,1.37c9.49,2.01,19.95-0.64,19.95-9.39c0-5.88-2.28-7.94-8.7-10.25
			c-4.85-1.74-10.25-2.43-10.25-7.24c0-6.12,9.31-4.6,12.02-4.37c0.32,1.39,0.76,2.43,1.23,3.87c1.07,3.3,0.56,3.01,2.41,3.05
			c0.27-0.57,1.8-8.12,1.82-9.11c-6.31-1.47-16.1-3.34-20.99,2.69c-1.17,1.44-1.75,2.55-2.15,4.8c-1.15,6.55,4.12,9.69,9.61,11.5
			c1.51,0.5,3.95,1.15,5.41,1.88C220.64,43.07,222.26,44.73,222.26,46.63z"/>
		<path class="st3" d="M166.51,121.32c0.32,0.18,0.84,0.3,1.47,0.36h6.18c3.05,0,3.83-1.55,4.35-4.03c0.51-2.42,1.01-4.31,1.62-6.76
			c1.61-6.46,4.01-13,6.41-19.09l5.14-11.98c1.61-3.97,4.43-0.85,4.7-4.04h-11.29v1.09l3.63,1.15c-0.1,1.39-1.04,3.45-1.59,4.89
			c-0.97,2.53-5.53,13.4-5.67,15.09h-0.73c-0.13-1.61-1.07-3.41-1.67-4.89c-1.03-2.57-5.46-13.24-5.62-15.15
			c3.73-0.87,3.52-0.75,3.64-2.19h-14.21c0.28,3.32,2.79-0.06,4.63,4.12l8,19.33c3.32,7.4,3.14,5.82-0.24,12.63
			c-3.51,7.05-3.46,6.19-7.64,8.03C166.02,120.58,166.69,119.74,166.51,121.32z"/>
		<path class="st3" d="M237.92,21.5c-2.35,0-3.28,0.36-5.83,0.36c0.04,1.99,0.29,1.65,1.92,2.08c1.19,0.32,2.05,0.57,3.18,0.83
			c0,3.8-0.56,24.05,0.6,26.72c2.82,6.5,13.5,3.55,17.31,1.36c0.94-0.54,1.27-0.16,0.98-1.42c-0.41-1.79-2.12-0.07-7.23-0.07
			c-2.74,0-4.74-1.9-4.74-4.74V25.87c0-0.84,0.25-1.09,1.09-1.09h9.84V21.5h-9.84c-2.5,0-0.23-7.43-0.79-9.05
			c-0.45-1.28-0.71-0.8-1.78-0.53c-0.54,0.14-1.88,0.54-2.19,0.8C239.81,13.24,237.95,20.03,237.92,21.5z"/>
		<path class="st3" d="M174.89,22.59c0.18,2.19,3.19,2.39,5.1,2.55l-0.01,25.49c-0.28,1.64-1.11,1.4-2.58,1.79
			c-0.11,0.03-1.65,0.52-1.66,0.52c-1.1,0.64-0.68-0.12-0.85,1.34c1.46,0.82,15.13,0.36,17.85,0.36v-1.46
			c-1.09-0.25-1.64-0.48-2.84-0.8c-3.28-0.86-2.19-0.54-2.62-1.38l-0.36-24.41c1.51-0.4,6.14-3.75,8.13,0.98
			c0.53,1.26,1.22,2.72,1.34,4.13h1.82l1.69-9.28c0.33-1.5,0.77-2.38-0.6-2.38c-4.69,0-9.55,2.47-12.39,4.37
			c0-5.2,0.61-4.71-4.21-3.48L174.89,22.59z"/>
		<path class="st3" d="M338.11,82.34c0,5.4,0.41,7.8,7.43,10.42c3.57,1.33,8.6,1.62,8.6,6.34c0,4.73-5.47,4.74-8.38,4.74
			c-2.56,0-3-0.67-3.61-2.58c-0.46-1.45-1.36-3.58-1.49-5.07h-1.46c0,1.72-1.29,7.26-1.82,8.38c1.07,0.25,2.34,0.79,3.59,1.14
			c3.32,0.93,5.64,0.68,9.16,0.68c8.65,0,16.11-13.21,2.14-17.81c-4.23-1.39-9.43-2.42-9.43-6.6c0-5.93,9.78-4.03,10.93-4.01
			c0.16,1.95,1.36,4.22,1.82,6.19h1.46c0.21-2.55,1.4-5.44,1.46-8.02c-3.86-1.85-13.36-1.6-16.98,0.88
			C340.21,77.93,338.11,79.18,338.11,82.34z"/>
		<path class="st3" d="M198.57,83.07c0,5.25,1.41,7.43,7.24,9.52c4.06,1.46,8.79,1.63,8.79,6.87c0,5.57-9.32,4.51-10.51,3.95
			c-1.42-0.67-2.63-5.75-2.97-7.23c-2.01,0.17-1.46,1.34-1.91,3.55c-0.28,1.38-0.97,3.16-1,4.82c4.1,1.97,7.64,1.82,12.02,1.82
			c4.28,0,10.2-3.4,10.2-8.74c0-6.95-4.8-8.24-11.98-10.61c-7.58-2.49-7.01-9.43,2.51-9.43c1.83,0,1.63,0.33,3.28,0.36
			c0.46,1.97,1.66,4.24,1.82,6.19h1.46c0.47-2,1.1-6.52,1.82-8.02c-5.24-1.22-12.82-2.31-17.45,1.13
			C200.25,78.5,198.57,80.28,198.57,83.07z"/>
		<path class="st3" d="M230.63,68.13l-2.19,8.02c-2.09,0-2.77,0.36-5.1,0.36c0.16,1.92,2.27,2.19,4.74,2.19
			c0,6.5-1.17,21.46,0.7,24.8c0.54,0.97,0.84,1.2,1.78,1.87c4.35,3.08,12.57-1.13,14.28-1.53v-1.46c-11.92,0-10.93,4.19-10.93-18.58
			c0-2.22,0.36-2.66,0.36-4.74h9.47v-2.91h-9.47V67.4C232.83,67.52,232.08,68.01,230.63,68.13z"/>
		<path class="st3" d="M154.13,22.59v1.46c1.5,0.13,3.3,0.76,4.74,1.09c0.09,1.14,0.36,1.29,0.36,2.55v22.22
			c0,4.17-5.01,0.7-5.1,4.74h17.12v-1.46c-1.69-0.39-3.41-1.06-5.1-1.46c0-2.08-0.36-2.52-0.36-4.74V32.79
			c0-4.72,0.36-8.07,0.36-12.75L154.13,22.59z"/>
		<path class="st3" d="M161.41,18.22c5.84,0,6.83-8.38,0-8.38c-2.56,0-3.51,1.78-3.74,4.31c-0.1,1.1-0.12,1.68,0.73,2.68
			C158.99,17.5,160.26,18.22,161.41,18.22z"/>
	</g>
</g>
</svg>
